<svg width="21" height="18" viewBox="0 0 21 18" fill="none" xmlns="http://www.w3.org/2000/svg">
<path d="M0.124951 9.00002C0.124951 7.27711 1.52703 5.87502 3.24995 5.87502H8.21245C7.14579 4.6844 7.19266 2.72398 8.33224 1.58232C8.91827 0.996469 9.71298 0.667358 10.5416 0.667358C11.3703 0.667358 12.165 0.996469 12.751 1.58232L20.1687 9.00002L12.751 16.4177C12.165 17.0036 11.3703 17.3327 10.5416 17.3327C9.71298 17.3327 8.91827 17.0036 8.33224 16.4177C7.19162 15.2781 7.14474 13.3146 8.21245 12.125H3.24995C1.52703 12.125 0.124951 10.7229 0.124951 9.00002ZM13.2354 7.95836H3.24995C2.98174 7.97035 2.7285 8.08534 2.54295 8.27938C2.3574 8.47342 2.25384 8.73155 2.25384 9.00002C2.25384 9.2685 2.3574 9.52663 2.54295 9.72067C2.7285 9.9147 2.98174 10.0297 3.24995 10.0417H13.2354L9.80516 13.4719C9.61555 13.6702 9.50972 13.934 9.50972 14.2084C9.50972 14.4827 9.61555 14.7465 9.80516 14.9448C10.0005 15.1401 10.2654 15.2498 10.5416 15.2498C10.8178 15.2498 11.0827 15.1401 11.2781 14.9448L17.2229 9.00002L11.2781 3.05523C11.0827 2.85995 10.8178 2.75025 10.5416 2.75025C10.2654 2.75025 10.0005 2.85995 9.80516 3.05523C9.61555 3.25353 9.50972 3.51733 9.50972 3.79169C9.50972 4.06606 9.61555 4.32985 9.80516 4.52815L13.2354 7.95836Z" fill="#9F8C8C"/>
</svg>
