<svg width="51" height="40" viewBox="0 0 51 40" fill="none" xmlns="http://www.w3.org/2000/svg">
<path d="M25.5001 0C39.0775 0 50.0834 8.954 50.0834 20C50.0834 31.046 39.0775 40 25.5001 40C20.8539 40 16.5026 38.95 12.7954 37.124L5.34177 38.908C4.91382 39.0104 4.45985 39.0172 4.02759 38.9275C3.59532 38.8379 3.20074 38.6551 2.8853 38.3985C2.56987 38.1419 2.34524 37.8208 2.23504 37.4692C2.12483 37.1175 2.13312 36.7482 2.25902 36.4L4.45185 30.336C2.13354 27.2186 0.910814 23.6435 0.91677 20C0.91677 8.954 11.9227 0 25.5001 0ZM16.8959 17C15.918 17 14.98 17.3161 14.2885 17.8787C13.5969 18.4413 13.2084 19.2044 13.2084 20C13.2084 20.7956 13.5969 21.5587 14.2885 22.1213C14.98 22.6839 15.918 23 16.8959 23C17.8739 23 18.8119 22.6839 19.5034 22.1213C20.1949 21.5587 20.5834 20.7956 20.5834 20C20.5834 19.2044 20.1949 18.4413 19.5034 17.8787C18.8119 17.3161 17.8739 17 16.8959 17ZM34.1043 17C33.1263 17 32.1884 17.3161 31.4968 17.8787C30.8053 18.4413 30.4168 19.2044 30.4168 20C30.4168 20.7956 30.8053 21.5587 31.4968 22.1213C32.1884 22.6839 33.1263 23 34.1043 23C35.0823 23 36.0202 22.6839 36.7117 22.1213C37.4033 21.5587 37.7918 20.7956 37.7918 20C37.7918 19.2044 37.4033 18.4413 36.7117 17.8787C36.0202 17.3161 35.0823 17 34.1043 17Z" fill="url(#paint0_linear_2_58)"/>
<defs>
<linearGradient id="paint0_linear_2_58" x1="0.916749" y1="7.39811e-07" x2="49.5983" y2="40.582" gradientUnits="userSpaceOnUse">
<stop stop-color="white"/>
<stop offset="1" stop-color="#2DAEDD"/>
</linearGradient>
</defs>
</svg>
